<svg id="delete" xmlns="http://www.w3.org/2000/svg" width="32" height="32" viewBox="0 0 32 32">
  <circle id="Ellipse_163" data-name="Ellipse 163" cx="16" cy="16" r="16" fill="#6f7a81" opacity="0"/>
  <g id="Group_14030" data-name="Group 14030" transform="translate(4 4)">
    <path id="Path_58970" data-name="Path 58970" d="M0,0H24V24H0Z" fill="none"/>
    <path id="Line_145" data-name="Line 145" d="M16,.75H0A.75.75,0,0,1-.75,0,.75.75,0,0,1,0-.75H16a.75.75,0,0,1,.75.75A.75.75,0,0,1,16,.75Z" transform="translate(4 7)" fill="#6f7a81"/>
    <path id="Line_146" data-name="Line 146" d="M0,6.75A.75.75,0,0,1-.75,6V0A.75.75,0,0,1,0-.75.75.75,0,0,1,.75,0V6A.75.75,0,0,1,0,6.75Z" transform="translate(10 11)" fill="#6f7a81"/>
    <path id="Line_147" data-name="Line 147" d="M0,6.75A.75.75,0,0,1-.75,6V0A.75.75,0,0,1,0-.75.75.75,0,0,1,.75,0V6A.75.75,0,0,1,0,6.75Z" transform="translate(14 11)" fill="#6f7a81"/>
    <path id="Path_58971" data-name="Path 58971" d="M16,21.75H8a2.753,2.753,0,0,1-2.75-2.716l-1-11.971a.75.75,0,1,1,1.495-.125l1,12q0,.031,0,.062A1.251,1.251,0,0,0,8,20.25h8A1.251,1.251,0,0,0,17.25,19q0-.031,0-.062l1-12a.75.75,0,1,1,1.495.125l-1,11.971A2.753,2.753,0,0,1,16,21.75Z" fill="#6f7a81"/>
    <path id="Path_58972" data-name="Path 58972" d="M15,7.75A.75.75,0,0,1,14.25,7V4A.25.25,0,0,0,14,3.75H10A.25.25,0,0,0,9.75,4V7a.75.75,0,0,1-1.5,0V4A1.752,1.752,0,0,1,10,2.25h4A1.752,1.752,0,0,1,15.75,4V7A.75.75,0,0,1,15,7.75Z" fill="#6f7a81"/>
  </g>
</svg>
