<svg xmlns="http://www.w3.org/2000/svg" width="22.577" height="22.577" viewBox="0 0 22.577 22.577">
  <path id="Icon_awesome-whatsapp" data-name="Icon awesome-whatsapp" d="M19.2,5.531a11.191,11.191,0,0,0-17.608,13.5L0,24.827,5.932,23.27a11.154,11.154,0,0,0,5.347,1.361h.005A11.3,11.3,0,0,0,22.577,13.443,11.232,11.232,0,0,0,19.2,5.531ZM11.284,22.746a9.282,9.282,0,0,1-4.737-1.3l-.338-.2-3.518.922.937-3.432-.222-.353a9.317,9.317,0,1,1,17.281-4.944A9.4,9.4,0,0,1,11.284,22.746Zm5.1-6.965c-.277-.141-1.653-.816-1.91-.907s-.443-.141-.63.141-.721.907-.887,1.1-.328.212-.6.071a7.609,7.609,0,0,1-3.8-3.326c-.287-.494.287-.459.821-1.527a.518.518,0,0,0-.025-.489c-.071-.141-.63-1.517-.862-2.076-.227-.544-.459-.469-.63-.479s-.348-.01-.534-.01a1.036,1.036,0,0,0-.746.348,3.141,3.141,0,0,0-.978,2.333,5.477,5.477,0,0,0,1.139,2.893,12.492,12.492,0,0,0,4.777,4.223c1.774.766,2.469.832,3.356.7a2.863,2.863,0,0,0,1.885-1.33,2.338,2.338,0,0,0,.161-1.33C16.847,15.988,16.661,15.917,16.384,15.781Z" transform="translate(0 -2.25)"/>
</svg>
