<svg xmlns="http://www.w3.org/2000/svg" width="24.64" height="24.683" viewBox="0 0 24.64 24.683">
  <path id="Icon_feather-phone-call" data-name="Icon feather-phone-call" d="M17.125,5.815a5.394,5.394,0,0,1,4.261,4.261M17.125,1.5A9.709,9.709,0,0,1,25.7,10.066m-1.079,8.609v3.236a2.158,2.158,0,0,1-2.352,2.158,21.349,21.349,0,0,1-9.31-3.312,21.037,21.037,0,0,1-6.473-6.473A21.349,21.349,0,0,1,3.177,4.931,2.158,2.158,0,0,1,5.323,2.579H8.56a2.158,2.158,0,0,1,2.158,1.856,13.852,13.852,0,0,0,.755,3.031,2.158,2.158,0,0,1-.485,2.276l-1.37,1.37a17.261,17.261,0,0,0,6.473,6.473l1.37-1.37a2.158,2.158,0,0,1,2.276-.485,13.852,13.852,0,0,0,3.031.755A2.158,2.158,0,0,1,24.623,18.674Z" transform="translate(-2.167 -0.396)" fill="none" stroke="#000" stroke-linecap="round" stroke-linejoin="round" stroke-width="2"/>
</svg>
