<svg xmlns="http://www.w3.org/2000/svg" width="18.038" height="22.577" viewBox="0 0 18.038 22.577">
  <g id="Icon_ionic-ios-notifications-outline" data-name="Icon ionic-ios-notifications-outline" transform="translate(-6.775 -3.93)">
    <path id="Path_58066" data-name="Path 58066" d="M19.25,28.336a.731.731,0,0,0-.717.576,1.414,1.414,0,0,1-.282.615,1.067,1.067,0,0,1-.909.333,1.084,1.084,0,0,1-.909-.333,1.414,1.414,0,0,1-.282-.615.731.731,0,0,0-.717-.576h0a.736.736,0,0,0-.717.9,2.521,2.521,0,0,0,2.624,2.094,2.517,2.517,0,0,0,2.624-2.094.739.739,0,0,0-.717-.9Z" transform="translate(-1.565 -4.819)"/>
    <path id="Path_58067" data-name="Path 58067" d="M24.586,20.65c-.869-1.146-2.579-1.817-2.579-6.946,0-5.265-2.325-7.381-4.492-7.889-.2-.051-.35-.119-.35-.333V5.319A1.384,1.384,0,0,0,15.812,3.93h-.034a1.384,1.384,0,0,0-1.354,1.388v.164c0,.209-.147.282-.35.333C11.9,6.329,9.582,8.439,9.582,13.7c0,5.129-1.71,5.8-2.579,6.946a1.12,1.12,0,0,0,.9,1.794H23.706A1.121,1.121,0,0,0,24.586,20.65Zm-2.2.327H9.226a.247.247,0,0,1-.186-.412,6.836,6.836,0,0,0,1.185-1.885,12.788,12.788,0,0,0,.807-4.977,8.654,8.654,0,0,1,1.179-4.9A3.621,3.621,0,0,1,14.4,7.248a1.978,1.978,0,0,0,1.05-.593.446.446,0,0,1,.672-.011,2.044,2.044,0,0,0,1.061.6,3.621,3.621,0,0,1,2.184,1.557,8.654,8.654,0,0,1,1.179,4.9,12.788,12.788,0,0,0,.807,4.977,6.914,6.914,0,0,0,1.213,1.913A.233.233,0,0,1,22.386,20.978Z"/>
  </g>
</svg>
