<svg xmlns="http://www.w3.org/2000/svg" width="20.571" height="27" viewBox="0 0 20.571 27">
  <path id="Icon_material-lock-outline" data-name="Icon material-lock-outline" d="M16.286,22.071A2.571,2.571,0,1,0,13.714,19.5,2.579,2.579,0,0,0,16.286,22.071ZM24,10.5H22.714V7.929a6.429,6.429,0,0,0-12.857,0V10.5H8.571A2.579,2.579,0,0,0,6,13.071V25.929A2.579,2.579,0,0,0,8.571,28.5H24a2.579,2.579,0,0,0,2.571-2.571V13.071A2.579,2.579,0,0,0,24,10.5ZM12.3,7.929a3.986,3.986,0,1,1,7.971,0V10.5H12.3Zm11.7,18H8.571V13.071H24Z" transform="translate(-6 -1.5)" fill="#df1b33"/>
</svg>
