<svg xmlns="http://www.w3.org/2000/svg" width="23.704" height="22.718" viewBox="0 0 23.704 22.718">
  <g id="Icon_feather-shopping-cart" data-name="Icon feather-shopping-cart" transform="translate(-0.5 -0.5)">
    <path id="Path_58074" data-name="Path 58074" d="M13.973,30.987A.987.987,0,1,1,12.987,30,.987.987,0,0,1,13.973,30.987Z" transform="translate(-3.594 -9.755)" fill="none" stroke="#666" stroke-linecap="round" stroke-linejoin="round" stroke-width="2"/>
    <path id="Path_58075" data-name="Path 58075" d="M30.473,30.987A.987.987,0,1,1,29.487,30,.987.987,0,0,1,30.473,30.987Z" transform="translate(-9.242 -9.755)" fill="none" stroke="#666" stroke-linecap="round" stroke-linejoin="round" stroke-width="2"/>
    <path id="Path_58076" data-name="Path 58076" d="M1.5,1.5H5.446L8.09,14.71A1.973,1.973,0,0,0,10.063,16.3h9.589a1.973,1.973,0,0,0,1.973-1.588L23.2,6.433H6.433" fill="none" stroke="#666" stroke-linecap="round" stroke-linejoin="round" stroke-width="2"/>
  </g>
</svg>
