<svg xmlns="http://www.w3.org/2000/svg" width="22.636" height="21.843" viewBox="0 0 22.636 21.843">
  <path id="Icon_ionic-ios-heart-empty" data-name="Icon ionic-ios-heart-empty" d="M19.551,3.938H19.5A6.055,6.055,0,0,0,14.443,6.7,6.055,6.055,0,0,0,9.388,3.938H9.335A6.016,6.016,0,0,0,3.375,9.95a12.953,12.953,0,0,0,2.544,7.061,44.574,44.574,0,0,0,8.525,8.211,44.574,44.574,0,0,0,8.525-8.211A12.953,12.953,0,0,0,25.511,9.95,6.016,6.016,0,0,0,19.551,3.938Zm2.214,12.2a40.813,40.813,0,0,1-7.322,7.216,40.874,40.874,0,0,1-7.322-7.221A11.48,11.48,0,0,1,4.865,9.95a4.515,4.515,0,0,1,4.48-4.518h.048a4.461,4.461,0,0,1,2.187.575A4.65,4.65,0,0,1,13.2,7.524a1.495,1.495,0,0,0,2.5,0,4.7,4.7,0,0,1,1.618-1.517A4.461,4.461,0,0,1,19.5,5.433h.048a4.515,4.515,0,0,1,4.48,4.518A11.625,11.625,0,0,1,21.765,16.134Z" transform="translate(-3.125 -3.688)" fill="#666" stroke="#666" stroke-width="0.5"/>
</svg>
