<svg xmlns="http://www.w3.org/2000/svg" width="22.051" height="22.051" viewBox="0 0 22.051 22.051">
  <path id="Icon_ionic-logo-whatsapp" data-name="Icon ionic-logo-whatsapp" d="M13.475,2.25A10.783,10.783,0,0,0,2.65,12.991,10.63,10.63,0,0,0,4.2,18.538L2.25,24.3l5.993-1.9A10.843,10.843,0,0,0,24.3,12.991,10.783,10.783,0,0,0,13.475,2.25Zm5.383,14.821A2.8,2.8,0,0,1,16.944,18.3c-.508.027-.522.393-3.29-.809A11.294,11.294,0,0,1,9.09,13.181,5.309,5.309,0,0,1,8.069,10.3,3.067,3.067,0,0,1,9.122,8.053a1.06,1.06,0,0,1,.75-.316c.218,0,.359-.006.52,0s.4-.034.613.524.711,1.927.775,2.067a.5.5,0,0,1,.005.481,1.88,1.88,0,0,1-.293.447c-.144.155-.3.347-.433.465s-.294.274-.143.555a8.284,8.284,0,0,0,1.466,1.956,7.553,7.553,0,0,0,2.171,1.443c.271.148.433.131.6-.046s.721-.775.915-1.042.377-.215.627-.115,1.583.815,1.854.962.452.223.517.34A2.273,2.273,0,0,1,18.858,17.071Z" transform="translate(-2.25 -2.25)" fill="#4caf50"/>
</svg>
