<svg xmlns="http://www.w3.org/2000/svg" width="27" height="27" viewBox="0 0 27 27">
  <path id="logo-whatsapp" d="M55.066,35.923A13.419,13.419,0,0,0,33.907,52.068L32,59l7.127-1.86a13.478,13.478,0,0,0,6.425,1.627h.005A13.432,13.432,0,0,0,59,45.386a13.27,13.27,0,0,0-3.934-9.464Zm-9.51,20.585h0a11.2,11.2,0,0,1-5.687-1.55l-.408-.241-4.229,1.1,1.129-4.1-.266-.422a11.183,11.183,0,1,1,9.466,5.213Zm6.129-8.328c-.336-.168-1.989-.976-2.295-1.088s-.532-.168-.756.168-.868,1.085-1.064,1.311-.392.251-.727.083a9.188,9.188,0,0,1-2.7-1.659,10.081,10.081,0,0,1-1.868-2.315c-.2-.334-.021-.516.147-.682.151-.15.336-.391.5-.586a2.262,2.262,0,0,0,.336-.558.614.614,0,0,0-.028-.585c-.084-.167-.756-1.813-1.035-2.482-.273-.652-.55-.563-.756-.574s-.422-.012-.644-.012a1.237,1.237,0,0,0-.9.418,3.746,3.746,0,0,0-1.176,2.789A6.5,6.5,0,0,0,40.1,45.864a14.934,14.934,0,0,0,5.738,5.048,19.474,19.474,0,0,0,1.915.7,4.625,4.625,0,0,0,2.115.133,3.457,3.457,0,0,0,2.268-1.59,2.791,2.791,0,0,0,.2-1.589c-.084-.139-.308-.224-.644-.391Z" transform="translate(-32 -31.999)" fill="#666" fill-rule="evenodd"/>
</svg>
