<svg xmlns="http://www.w3.org/2000/svg" width="23.442" height="27" viewBox="0 0 23.442 27">
  <path id="Icon_metro-fire" data-name="Icon metro-fire" d="M11.3,28.928c-1.8-3.744-.841-5.89.542-7.911a12.6,12.6,0,0,0,1.9-4.405,5.176,5.176,0,0,1,.714,3.968,10.016,10.016,0,0,0,2.183-7.5C21.4,16.4,23.431,23.6,20.692,28.928c14.564-8.241,3.623-20.571,1.718-21.96.635,1.389.755,3.74-.527,4.881-2.171-8.234-7.54-9.921-7.54-9.921.635,4.246-2.3,8.89-5.134,12.359a9.177,9.177,0,0,0-1.1-4.482c-.2,3.076-2.551,5.583-3.187,8.665C4.064,22.644,5.572,25.7,11.3,28.928Z" transform="translate(-4.701 -1.928)" fill="#df1b33"/>
</svg>
