<svg xmlns="http://www.w3.org/2000/svg" width="29.165" height="29.171" viewBox="0 0 29.165 29.171">
  <g id="pricetag-outline" transform="translate(1.171 1)">
    <path id="Path_7" data-name="Path 7" d="M73.181,48H65.2a.938.938,0,0,0-.662.273L48.6,64.219a1.872,1.872,0,0,0,0,2.642l7.594,7.594a1.872,1.872,0,0,0,2.642,0l15.94-15.94a.939.939,0,0,0,.273-.662V49.869A1.86,1.86,0,0,0,73.181,48Z" transform="translate(-48.05 -48)" fill="none" stroke="#666" stroke-linecap="round" stroke-linejoin="round" stroke-width="2"/>
    <path id="Path_8" data-name="Path 8" d="M354.077,100.154a2.077,2.077,0,1,1,2.077-2.077A2.077,2.077,0,0,1,354.077,100.154Z" transform="translate(-332.272 -92.885)" fill="#666"/>
  </g>
</svg>
